<svg width="24" height="24" viewBox="0 0 24 24" fill="none" xmlns="http://www.w3.org/2000/svg">
<path d="M11.9966 3.72537C10.8808 3.8041 10.0001 4.73418 10.0001 5.86997L9.9991 7.98704L9.97867 7.99194C5.44638 8.93093 2.1001 12.9471 2.1001 17.6854C2.1001 18.0297 2.1177 18.3727 2.15253 18.713C2.23555 19.5242 3.2682 19.8157 3.76312 19.1676L3.94992 18.9312C5.40924 17.1447 7.48694 15.9728 9.78561 15.6658L9.9991 15.64L10.0001 18.1344C10.0001 18.615 10.1613 19.082 10.4579 19.4604C11.1904 20.395 12.5418 20.5588 13.4764 19.8263L21.3001 13.6942C21.4363 13.5874 21.5592 13.4646 21.6659 13.3283C22.3984 12.3938 22.2346 11.0424 21.3001 10.3099L13.4764 4.1778C13.0979 3.88117 12.631 3.71997 12.1501 3.71997L11.9966 3.72537ZM12.1501 5.51997C12.2284 5.51997 12.3044 5.54621 12.366 5.5945L20.1897 11.7266C20.3418 11.8458 20.3685 12.0658 20.2492 12.218C20.2319 12.2401 20.2119 12.2601 20.1897 12.2775L12.366 18.4096C12.2139 18.5288 11.9939 18.5022 11.8746 18.35C11.8263 18.2884 11.8001 18.2124 11.8001 18.1341L11.7991 14.6868C11.799 14.184 11.387 13.7789 10.8843 13.7872L10.6512 13.791L10.3089 13.8075C8.03484 13.9527 5.9122 14.7947 4.19039 16.1734L4.0161 16.317L4.0399 16.1817C4.68271 12.7662 7.47482 10.0763 11.0083 9.64542C11.4597 9.59037 11.7992 9.20712 11.7993 8.75229L11.8001 5.87022C11.8001 5.67667 11.9568 5.51997 12.1501 5.51997Z" fill="#99A2AD"/>
</svg>
